<?xml version="1.0" encoding="utf-8"?>
<svg width="300" height="786" xmlns="http://www.w3.org/2000/svg">
  <title>Roulette layout</title>
  <title>Layer 1</title>
  <rect fill="#060" width="302.000014" height="795.000061" id="svg_1"/>
  <g transform="matrix(0, 1.002232, -0.990851, 0, 606.879211, 230.879135)" id="XMLID_4_">
    <g id="svg_6">
      <rect x="439.776151" y="455.915746" fill="#f00" width="55.244527" height="69.082142" id="svg_7"/>
      <rect x="439.776151" y="386.930962" width="55.244527" height="68.984785" id="svg_8"/>
      <rect x="439.776151" y="317.84882" fill="#f00" width="55.244527" height="69.082142" id="svg_9"/>
      <rect x="384.527518" y="455.915746" width="55.248633" height="69.082142" id="svg_10"/>
      <rect x="384.527518" y="386.930962" fill="#f00" width="55.248633" height="68.984785" id="svg_11"/>
      <rect x="384.527518" y="317.84882" width="55.248633" height="69.082142" id="svg_12"/>
      <rect x="329.282991" y="455.915746" fill="#f00" width="55.244527" height="69.082142" id="svg_13"/>
      <rect x="329.282991" y="386.930962" width="55.244527" height="68.984785" id="svg_14"/>
      <rect x="329.282991" y="317.84882" fill="#f00" width="55.244527" height="69.082142" id="svg_15"/>
      <rect x="274.034358" y="455.915746" fill="#f00" width="55.248633" height="69.082142" id="svg_16"/>
      <rect x="274.034358" y="386.930962" width="55.248633" height="68.984785" id="svg_17"/>
      <rect x="274.034358" y="317.84882" fill="#f00" width="55.248633" height="69.082142" id="svg_18"/>
      <rect x="218.769305" y="455.915746" width="55.265054" height="69.082142" id="svg_19"/>
      <rect x="218.769305" y="386.930962" fill="#f00" width="55.265054" height="68.984785" id="svg_20"/>
      <rect x="218.769305" y="317.84882" width="55.265054" height="69.082142" id="svg_21"/>
      <rect x="163.348251" y="455.915746" width="55.421054" height="69.082142" id="svg_22"/>
      <rect x="163.348251" y="386.930962" width="55.421054" height="68.984785" id="svg_23"/>
      <rect x="163.348251" y="317.84882" fill="#f00" width="55.421054" height="69.082142" id="svg_24"/>
      <rect x="108.103724" y="455.915746" fill="#f00" width="55.244527" height="69.082142" id="svg_25"/>
      <rect x="108.103724" y="386.930962" width="55.244527" height="68.984785" id="svg_26"/>
      <rect x="108.103724" y="317.84882" fill="#f00" width="55.244527" height="69.082142" id="svg_27"/>
      <rect x="52.855091" y="455.915746" width="55.248633" height="69.082142" id="svg_28"/>
      <rect x="52.855091" y="386.930962" fill="#f00" width="55.248633" height="68.984785" id="svg_29"/>
      <rect x="52.855091" y="317.84882" width="55.248633" height="69.082142" id="svg_30"/>
      <rect x="-2.389436" y="455.915746" width="55.244527" height="69.082142" id="svg_31"/>
      <rect x="-2.389436" y="386.930962" width="55.244527" height="68.984785" id="svg_32"/>
      <rect x="-2.389436" y="317.84882" fill="#f00" width="55.244527" height="69.082142" id="svg_33"/>
      <rect x="-57.638069" y="455.915746" fill="#f00" width="55.248633" height="69.082142" id="svg_34"/>
      <rect x="-57.638069" y="386.930962" width="55.248633" height="68.984785" id="svg_35"/>
      <rect x="-57.638069" y="317.84882" fill="#f00" width="55.248633" height="69.082142" id="svg_36"/>
      <rect x="-112.886701" y="455.915746" width="55.248633" height="69.082142" id="svg_37"/>
      <rect x="-112.886701" y="386.930962" fill="#f00" width="55.248633" height="68.984785" id="svg_38"/>
      <rect x="-112.886701" y="317.84882" width="55.248633" height="69.082142" id="svg_39"/>
      <rect x="-168.151755" y="455.915746" fill="#f00" width="55.267106" height="69.082142" id="svg_40"/>
      <rect x="-168.151755" y="386.930962" width="55.267106" height="68.984785" id="svg_41"/>
      <rect x="-168.151755" y="317.84882" fill="#f00" width="55.267106" height="69.082142" id="svg_42"/>
    </g>
    <g id="svg_43">
      <polygon fill="none" stroke="#fff" points="-168.15174865722656,386.9309997558594 -168.15174865722656,317.84881591796875 -112.88670349121094,317.84881591796875 -57.6380615234375,317.84881591796875 -2.389434814453125,317.84881591796875 52.8551025390625,317.84881591796875 108.10369873046875,317.84881591796875 163.34823608398438,317.84881591796875 218.769287109375,317.84881591796875 274.03436279296875,317.84881591796875 329.282958984375,317.84881591796875 384.52752685546875,317.84881591796875 439.77618408203125,317.84881591796875 495.0206298828125,317.84881591796875 550.2693481445312,317.84881591796875 550.2693481445312,386.9309997558594 550.2693481445312,455.9157409667969 550.2693481445312,524.9958190917969 495.0206298828125,524.9958190917969 439.77618408203125,524.9958190917969 384.52752685546875,524.9958190917969 329.282958984375,524.9958190917969 274.03436279296875,524.9958190917969 218.769287109375,524.9958190917969 163.34823608398438,524.9958190917969 108.10369873046875,524.9958190917969 52.8551025390625,524.9958190917969 -2.389434814453125,524.9958190917969 -57.6380615234375,524.9958190917969 -112.88670349121094,524.9958190917969 -168.15174865722656,524.9958190917969 -168.15174865722656,455.9157409667969 " id="svg_44"/>
      <polyline fill="none" stroke="#fff" points="-168.15174865722656,455.9157409667969 -112.88670349121094,455.9157409667969 -57.6380615234375,455.9157409667969 -2.389434814453125,455.9157409667969 52.8551025390625,455.9157409667969 108.10369873046875,455.9157409667969 163.34823608398438,455.9157409667969 218.769287109375,455.9157409667969 274.03436279296875,455.9157409667969 329.282958984375,455.9157409667969 384.52752685546875,455.9157409667969 439.77618408203125,455.9157409667969 495.0206298828125,455.9157409667969 550.2693481445312,455.9157409667969 " id="svg_45"/>
      <polyline fill="none" stroke="#fff" points="-168.15174865722656,386.9309997558594 -112.88670349121094,386.9309997558594 -57.6380615234375,386.9309997558594 -2.389434814453125,386.9309997558594 52.8551025390625,386.9309997558594 108.10369873046875,386.9309997558594 163.34823608398438,386.9309997558594 218.769287109375,386.9309997558594 274.03436279296875,386.9309997558594 329.282958984375,386.9309997558594 384.52752685546875,386.9309997558594 439.77618408203125,386.9309997558594 495.0206298828125,386.9309997558594 550.2693481445312,386.9309997558594 " id="svg_46"/>
      <polyline fill="none" stroke="#fff" points="495.0206298828125,317.84881591796875 495.0206298828125,386.9309997558594 495.0206298828125,455.9157409667969 495.0206298828125,524.9958190917969 " id="svg_47"/>
      <polyline fill="none" stroke="#fff" points="439.77618408203125,317.84881591796875 439.77618408203125,386.9309997558594 439.77618408203125,455.9157409667969 439.77618408203125,524.9958190917969 " id="svg_48"/>
      <polyline fill="none" stroke="#fff" points="384.52752685546875,317.84881591796875 384.52752685546875,386.9309997558594 384.52752685546875,455.9157409667969 384.52752685546875,524.9958190917969 " id="svg_49"/>
      <polyline fill="none" stroke="#fff" points="329.282958984375,317.84881591796875 329.282958984375,386.9309997558594 329.282958984375,455.9157409667969 329.282958984375,524.9958190917969 " id="svg_50"/>
      <polyline fill="none" stroke="#fff" points="274.03436279296875,317.84881591796875 274.03436279296875,386.9309997558594 274.03436279296875,455.9157409667969 274.03436279296875,524.9958190917969 " id="svg_51"/>
      <polyline fill="none" stroke="#fff" points="218.769287109375,317.84881591796875 218.769287109375,386.9309997558594 218.769287109375,455.9157409667969 218.769287109375,524.9958190917969 " id="svg_52"/>
      <polyline fill="none" stroke="#fff" points="163.34823608398438,317.84881591796875 163.34823608398438,386.9309997558594 163.34823608398438,455.9157409667969 163.34823608398438,524.9958190917969 " id="svg_53"/>
      <polyline fill="none" stroke="#fff" points="108.10369873046875,317.84881591796875 108.10369873046875,386.9309997558594 108.10369873046875,455.9157409667969 108.10369873046875,524.9958190917969 " id="svg_54"/>
      <polyline fill="none" stroke="#fff" points="52.8551025390625,317.84881591796875 52.8551025390625,386.9309997558594 52.8551025390625,455.9157409667969 52.8551025390625,524.9958190917969 " id="svg_55"/>
      <polyline fill="none" stroke="#fff" points="-2.389434814453125,317.84881591796875 -2.389434814453125,386.9309997558594 -2.389434814453125,455.9157409667969 -2.389434814453125,524.9958190917969 " id="svg_56"/>
      <polyline fill="none" stroke="#fff" points="-57.6380615234375,317.84881591796875 -57.6380615234375,386.9309997558594 -57.6380615234375,455.9157409667969 -57.6380615234375,524.9958190917969 " id="svg_57"/>
      <polyline fill="none" stroke="#fff" points="-112.88670349121094,317.84881591796875 -112.88670349121094,386.9309997558594 -112.88670349121094,455.9157409667969 -112.88670349121094,524.9958190917969 " id="svg_58"/>
    </g>
  </g>
  <g transform="matrix(0, 1.002232, -0.990851, 0, 434.466736, 348.367249)" id="svg_62">
    <g id="svg_63">
      <g id="XMLID_5_">
        <g id="svg_64">
          <rect x="45.44432" y="393.035695" width="110.552686" height="41.428571" id="svg_65"/>
          <rect x="-65.108366" y="393.035695" fill="#f00" width="110.552686" height="41.428571" id="svg_66"/>
        </g>
        <g id="svg_67">
          <polygon fill="none" stroke="#fff" points="-286.0577392578125,393.0357360839844 -286.0577392578125,351.6071472167969 -65.10838317871094,351.6071472167969 155.9970703125,351.6071472167969 376.94427490234375,351.6071472167969 376.94427490234375,393.0357360839844 376.94427490234375,434.46429443359375 266.39166259765625,434.46429443359375 155.9970703125,434.46429443359375 45.4443359375,434.46429443359375 -65.10838317871094,434.46429443359375 -175.5030059814453,434.46429443359375 -286.0577392578125,434.46429443359375 " id="svg_68"/>
          <polyline fill="none" stroke="#fff" points="-286.0577392578125,393.0357360839844 -175.5030059814453,393.0357360839844 -65.10838317871094,393.0357360839844 45.4443359375,393.0357360839844 155.9970703125,393.0357360839844 266.39166259765625,393.0357360839844 376.94427490234375,393.0357360839844 " id="svg_69"/>
          <line fill="none" stroke="#fff" x1="266.39164" y1="393.035695" x2="266.39164" y2="434.464266" id="svg_70"/>
          <polyline fill="none" stroke="#fff" points="155.9970703125,351.6071472167969 155.9970703125,393.0357360839844 155.9970703125,434.46429443359375 " id="svg_71"/>
          <line fill="none" stroke="#fff" x1="45.44432" y1="393.035695" x2="45.44432" y2="434.464266" id="svg_72"/>
          <polyline fill="none" stroke="#fff" points="-65.10838317871094,351.6071472167969 -65.10838317871094,393.0357360839844 -65.10838317871094,434.46429443359375 " id="svg_73"/>
          <line fill="none" stroke="#fff" x1="-175.503" y1="393.035695" x2="-175.503" y2="434.464266" id="svg_74"/>
        </g>
      </g>
    </g>
  </g>
  <g transform="matrix(0, 1.002232, -0.990851, 0, 537.096619, 245.488647)" id="svg_75">
    <text transform="matrix(-8.97234e-08, -2.07143, 2.05263, -9.0545e-08, 496.035, -153.907)" fill="#fff" font-family="'Verdana'" font-size="14" id="svg_76" y="-337.908699" x="-248.663829" style="white-space: pre;">0</text>
    <text transform="matrix(-8.97234e-08, -2.07143, 2.05263, -9.0545e-08, 548.018, -85.4567)" fill="#fff" font-family="'Verdana'" font-size="14" id="svg_78" y="-337.908699" x="-248.663829" style="white-space: pre;">1</text>
    <text transform="matrix(-8.97234e-08, -2.07143, 2.05263, -9.0545e-08, 548.018, -153.907)" fill="#fff" font-family="'Verdana'" font-size="14" id="svg_79" y="-337.908699" x="-248.663829" style="white-space: pre;">2</text>
    <text transform="matrix(-8.97234e-08, -2.07143, 2.05263, -9.0545e-08, 548.018, -223.676)" fill="#fff" font-family="'Verdana'" font-size="14" id="svg_80" y="-337.908699" x="-248.663829" style="white-space: pre;">3</text>
    <text transform="matrix(-8.97234e-08, -2.07143, 2.05263, -9.0545e-08, 604.81, -85.4567)" fill="#fff" font-family="'Verdana'" font-size="14" id="svg_81" y="-337.908699" x="-248.663829" style="white-space: pre;">4</text>
    <text transform="matrix(-8.97234e-08, -2.07143, 2.05263, -9.0545e-08, 604.81, -223.676)" fill="#fff" font-family="'Verdana'" font-size="14" id="svg_82" y="-337.908699" x="-248.663829" style="white-space: pre;">6</text>
    <text transform="matrix(-8.97234e-08, -2.07143, 2.05263, -9.0545e-08, 604.81, -153.907)" fill="#fff" font-family="'Verdana'" font-size="14" id="svg_83" y="-337.908699" x="-248.663829" style="white-space: pre;">5</text>
    <text transform="matrix(-8.97234e-08, -2.07143, 2.05263, -9.0545e-08, 659.068, -85.4567)" fill="#fff" font-family="'Verdana'" font-size="14" id="svg_84" y="-337.908699" x="-248.663829" style="white-space: pre;">7</text>
    <text transform="matrix(-8.97234e-08, -2.07143, 2.05263, -9.0545e-08, 659.068, -153.907)" fill="#fff" font-family="'Verdana'" font-size="14" id="svg_85" y="-337.908699" x="-248.663829" style="white-space: pre;">8</text>
    <text transform="matrix(-8.97234e-08, -2.07143, 2.05263, -9.0545e-08, 659.068, -223.676)" fill="#fff" font-family="'Verdana'" font-size="14" id="svg_86" y="-337.908699" x="-248.663829" style="white-space: pre;">9</text>
    <text transform="matrix(-8.97234e-08, -2.07143, 2.05263, -9.0545e-08, 713.807, -76.2363)" fill="#fff" font-family="'Verdana'" font-size="14" id="svg_87" y="-337.908699" x="-248.663829" style="white-space: pre;">10</text>
    <text transform="matrix(-8.97234e-08, -2.07143, 2.05263, -9.0545e-08, 713.807, -214.456)" fill="#fff" font-family="'Verdana'" font-size="14" id="svg_88" y="-337.908699" x="-248.663829" style="white-space: pre;">12</text>
    <text transform="matrix(-8.97234e-08, -2.07143, 2.05263, -9.0545e-08, 713.807, -144.687)" fill="#fff" font-family="'Verdana'" font-size="14" id="svg_89" y="-337.908699" x="-248.663829" style="white-space: pre;">11</text>
    <text transform="matrix(-8.97234e-08, -2.07143, 2.05263, -9.0545e-08, 770.573, -76.2363)" fill="#fff" font-family="'Verdana'" font-size="14" id="svg_90" y="-337.908699" x="-248.663829" style="white-space: pre;">13</text>
    <text transform="matrix(-8.97234e-08, -2.07143, 2.05263, -9.0545e-08, 770.573, -144.687)" fill="#fff" font-family="'Verdana'" font-size="14" id="svg_91" y="-337.908699" x="-248.663829" style="white-space: pre;">14</text>
    <text transform="matrix(-8.97234e-08, -2.07143, 2.05263, -9.0545e-08, 770.573, -214.456)" fill="#fff" font-family="'Verdana'" font-size="14" id="svg_92" y="-337.908699" x="-248.663829" style="white-space: pre;">15</text>
    <text transform="matrix(-8.97234e-08, -2.07143, 2.05263, -9.0545e-08, 825.312, -76.2363)" fill="#fff" font-family="'Verdana'" font-size="14" id="svg_93" y="-337.908699" x="-248.663829" style="white-space: pre;">16</text>
    <text transform="matrix(-8.97234e-08, -2.07143, 2.05263, -9.0545e-08, 825.312, -214.456)" fill="#fff" font-family="'Verdana'" font-size="14" id="svg_94" y="-337.908699" x="-248.663829" style="white-space: pre;">18</text>
    <text transform="matrix(-8.97234e-08, -2.07143, 2.05263, -9.0545e-08, 825.312, -144.687)" fill="#fff" font-family="'Verdana'" font-size="14" id="svg_95" y="-337.908699" x="-248.663829" style="white-space: pre;">17</text>
    <text transform="matrix(-8.97234e-08, -2.07143, 2.05263, -9.0545e-08, 880.711, -76.2363)" fill="#fff" font-family="'Verdana'" font-size="14" id="svg_96" y="-337.908699" x="-248.663829" style="white-space: pre;">19</text>
    <text transform="matrix(-8.97234e-08, -2.07143, 2.05263, -9.0545e-08, 880.711, -144.687)" fill="#fff" font-family="'Verdana'" font-size="14" id="svg_97" y="-337.908699" x="-248.663829" style="white-space: pre;">20</text>
    <text transform="matrix(-8.97234e-08, -2.07143, 2.05263, -9.0545e-08, 880.711, -214.456)" fill="#fff" font-family="'Verdana'" font-size="14" id="svg_98" y="-337.908699" x="-248.663829" style="white-space: pre;">21</text>
    <text transform="matrix(-8.97234e-08, -2.07143, 2.05263, -9.0545e-08, 935.452, -76.2363)" fill="#fff" font-family="'Verdana'" font-size="14" id="svg_99" y="-337.908699" x="-248.663829" style="white-space: pre;">22</text>
    <text transform="matrix(-8.97234e-08, -2.07143, 2.05263, -9.0545e-08, 935.452, -214.456)" fill="#fff" font-family="'Verdana'" font-size="14" id="svg_100" y="-337.908699" x="-248.663829" style="white-space: pre;">24</text>
    <text transform="matrix(-8.97234e-08, -2.07143, 2.05263, -9.0545e-08, 935.452, -144.687)" fill="#fff" font-family="'Verdana'" font-size="14" id="svg_101" y="-337.908699" x="-248.663829" style="white-space: pre;">23</text>
    <text transform="matrix(-8.97234e-08, -2.07143, 2.05263, -9.0545e-08, 991.758, -76.2363)" fill="#fff" font-family="'Verdana'" font-size="14" id="svg_102" y="-337.908699" x="-248.663829" style="white-space: pre;">25</text>
    <text transform="matrix(-8.97234e-08, -2.07143, 2.05263, -9.0545e-08, 991.76, -144.687)" fill="#fff" font-family="'Verdana'" font-size="14" id="svg_103" y="-337.908699" x="-248.663829" style="white-space: pre;">26</text>
    <text transform="matrix(-8.97234e-08, -2.07143, 2.05263, -9.0545e-08, 991.758, -214.456)" fill="#fff" font-family="'Verdana'" font-size="14" id="svg_104" y="-337.908699" x="-248.663829" style="white-space: pre;">27</text>
    <text transform="matrix(-8.97234e-08, -2.07143, 2.05263, -9.0545e-08, 1046.5, -76.2363)" fill="#fff" font-family="'Verdana'" font-size="14" id="svg_105" y="-337.908699" x="-248.663829" style="white-space: pre;">28</text>
    <text transform="matrix(-8.97234e-08, -2.07143, 2.05263, -9.0545e-08, 1046.5, -214.456)" fill="#fff" font-family="'Verdana'" font-size="14" id="svg_106" y="-337.908699" x="-248.663829" style="white-space: pre;">30</text>
    <text transform="matrix(-8.97234e-08, -2.07143, 2.05263, -9.0545e-08, 1046.5, -144.687)" fill="#fff" font-family="'Verdana'" font-size="14" id="svg_107" y="-337.908699" x="-248.663829" style="white-space: pre;">29</text>
    <text transform="matrix(-8.97234e-08, -2.07143, 2.05263, -9.0545e-08, 1100.98, -76.2363)" fill="#fff" font-family="'Verdana'" font-size="14" id="svg_108" y="-337.908699" x="-248.663829" style="white-space: pre;">31</text>
    <text transform="matrix(-8.97234e-08, -2.07143, 2.05263, -9.0545e-08, 1100.98, -144.687)" fill="#fff" font-family="'Verdana'" font-size="14" id="svg_109" y="-337.908699" x="-248.663829" style="white-space: pre;">32</text>
    <text transform="matrix(-8.97234e-08, -2.07143, 2.05263, -9.0545e-08, 1100.98, -214.456)" fill="#fff" font-family="'Verdana'" font-size="14" id="svg_110" y="-337.908699" x="-248.663829" style="white-space: pre;">33</text>
    <text transform="matrix(-8.97234e-08, -2.07143, 2.05263, -9.0545e-08, 1155.72, -76.2363)" fill="#fff" font-family="'Verdana'" font-size="14" id="svg_111" y="-337.908699" x="-248.663829" style="white-space: pre;">34</text>
    <text transform="matrix(-8.97234e-08, -2.07143, 2.05263, -9.0545e-08, 1155.72, -214.456)" fill="#fff" font-family="'Verdana'" font-size="14" id="svg_112" y="-337.908699" x="-248.663829" style="white-space: pre;">36</text>
    <text transform="matrix(-8.97234e-08, -2.07143, 2.05263, -9.0545e-08, 1155.72, -144.687)" fill="#fff" font-family="'Verdana'" font-size="14" id="svg_113" y="-337.908699" x="-248.663829" style="white-space: pre;">35</text>
    <text transform="matrix(-8.97234e-08, -2.07143, 2.05263, -9.0545e-08, 1211.47, -207.873)" fill="#fff" font-family="'Verdana'" font-size="14" id="svg_114" y="-337.908699" x="-248.663829" style="white-space: pre;">2-1</text>
    <text transform="matrix(-8.97234e-08, -2.07143, 2.05263, -9.0545e-08, 1211.47, -69.6533)" fill="#fff" font-family="'Verdana'" font-size="14" id="svg_115" y="-337.908699" x="-248.663829" style="white-space: pre;">2-1</text>
    <text transform="matrix(-8.97234e-08, -2.07143, 2.05263, -9.0545e-08, 1211.47, -138.104)" fill="#fff" font-family="'Verdana'" font-size="14" id="svg_116" y="-337.908699" x="-248.663829" style="white-space: pre;">2-1</text>
    <text transform="matrix(2.05263, 0, 0, 2.07143, 581.936, -29.9275)" fill="#fff" font-family="'Verdana'" font-size="12" id="svg_117" y="248.663843" x="-337.908687" style="white-space: pre;">1st 12</text>
    <text transform="matrix(2.05263, 0, 0, 2.07143, 798.803, -29.9275)" fill="#fff" font-family="'Verdana'" font-size="12" id="svg_118" y="248.663843" x="-337.908687" style="white-space: pre;">2nd 12</text>
    <text transform="matrix(2.05263, 0, 0, 2.07143, 1022.66, -29.9296)" fill="#fff" font-family="'Verdana'" font-size="12" id="svg_119" y="248.663843" x="-337.908687" style="white-space: pre;">3rd 12</text>
    <text transform="matrix(2.05263, 0, 0, 2.07143, 538.262, 11.0951)" fill="#fff" font-family="'Verdana'" font-size="12" id="svg_120" y="248.663843" x="-337.908687" style="white-space: pre;">1-18</text>
    <text transform="matrix(2.05263, 0, 0, 2.07143, 646.875, 11.0951)" fill="#fff" font-family="'Verdana'" font-size="12" id="svg_121" y="248.663843" x="-337.908687" style="white-space: pre;">Even</text>
    <text transform="matrix(2.05263, 0, 0, 2.07143, 983.287, 11.093)" fill="#fff" font-family="'Verdana'" font-size="12" id="svg_122" y="248.663843" x="-337.908687" style="white-space: pre;">Odd</text>
    <text transform="matrix(2.05263, 0, 0, 2.07143, 1081.46, 11.0951)" fill="#fff" font-family="'Verdana'" font-size="12" id="svg_123" y="248.663843" x="-337.908687" style="white-space: pre;">19-36</text>
    <text transform="matrix(2.05263, 0, 0, 2.07143, 765.283, 11.093)" fill="#fff" font-family="'Verdana'" font-size="12" id="svg_124" y="248.663843" x="-337.908687" style="white-space: pre;">Red</text>
    <text transform="matrix(2.05263, 0, 0, 2.07143, 867.01, 11.093)" fill="#fff" font-family="'Verdana'" font-size="12" id="svg_125" y="248.663843" x="-337.908687" style="white-space: pre;">Black</text>
  </g>
  <g id="svg_126">
    <g id="svg_127"/>
  </g>
  <path fill="none" stroke="#fff" d="M 217.233948 137.276291 C 203.218155 137.276291 189.202347 137.276291 175.186584 137.276291 L 161.689209 32.595913 L 175.186584 -67.975441 C 189.202347 -67.975441 203.218155 -67.975441 217.233948 -67.975441" id="svg_61" transform="matrix(0, 1, -1, 0, 224.112007, -154.811154)"/>
</svg>